<?xml version="1.0" encoding="us-ascii" standalone="no"?><svg xmlns="http://www.w3.org/2000/svg" xmlns:xlink="http://www.w3.org/1999/xlink" contentStyleType="text/css" height="577px" preserveAspectRatio="none" style="width:617px;height:577px;background:#FFFFFF;" version="1.1" viewBox="0 0 617 577" width="617px" zoomAndPan="magnify"><defs/><g><!--class Usuario--><g id="elem_Usuario"><rect codeLine="9" fill="#F8F9FA" height="129.0732" id="Usuario" rx="2.5" ry="2.5" style="stroke:#0052CC;stroke-width:1.0;" width="252" x="42.5" y="12"/><rect fill="#E3F2FD" height="28" rx="2.5" ry="2.5" style="stroke:#E3F2FD;stroke-width:1.0;" width="252" x="42.5" y="12"/><rect fill="#E3F2FD" height="2.5" style="stroke:#E3F2FD;stroke-width:1.0;" width="252" x="42.5" y="37.5"/><rect codeLine="9" fill="none" height="129.0732" id="Usuario" rx="2.5" ry="2.5" style="stroke:#0052CC;stroke-width:1.0;" width="252" x="42.5" y="12"/><ellipse cx="138.25" cy="26" fill="#FFFFFF" rx="9" ry="9" style="stroke:#000000;stroke-width:1.0;"/><path d="M141.0156,21.875 Q141.1719,21.6563 141.3594,21.5469 Q141.5469,21.4375 141.7656,21.4375 Q142.1406,21.4375 142.375,21.7031 Q142.6094,21.9531 142.6094,22.5625 L142.6094,24.0156 Q142.6094,24.625 142.375,24.8906 Q142.1406,25.1563 141.7656,25.1563 Q141.4219,25.1563 141.2188,24.9531 Q141.0156,24.7656 140.9063,24.25 Q140.8594,23.8906 140.6719,23.7031 Q140.3438,23.3281 139.7344,23.1094 Q139.125,22.8906 138.5,22.8906 Q137.7344,22.8906 137.0938,23.2188 Q136.4688,23.5469 135.9688,24.2969 Q135.4844,25.0469 135.4844,26.0781 L135.4844,27.1719 Q135.4844,28.4063 136.375,29.2344 Q137.2656,30.0469 138.8594,30.0469 Q139.7969,30.0469 140.4531,29.7969 Q140.8438,29.6406 141.2656,29.2031 Q141.5313,28.9375 141.6719,28.8594 Q141.8281,28.7813 142.0313,28.7813 Q142.3594,28.7813 142.6094,29.0469 Q142.875,29.2969 142.875,29.6406 Q142.875,29.9844 142.5313,30.3906 Q142.0313,30.9688 141.2344,31.2969 Q140.1563,31.75 138.8594,31.75 Q137.3438,31.75 136.1406,31.125 Q135.1563,30.625 134.4688,29.5625 Q133.7813,28.4844 133.7813,27.2031 L133.7813,26.0469 Q133.7813,24.7188 134.3906,23.5781 Q135.0156,22.4219 136.1094,21.8125 Q137.2031,21.1875 138.4375,21.1875 Q139.1719,21.1875 139.8125,21.3594 Q140.4688,21.5156 141.0156,21.875 Z " fill="#000000"/><text fill="#000000" font-family="Verdana" font-size="14" lengthAdjust="spacing" textLength="53" x="155.75" y="31.5679">Usuario</text><line style="stroke:#0052CC;stroke-width:1.0;" x1="43.5" x2="293.5" y1="40" y2="40"/><text fill="#000000" font-family="Verdana" font-size="14" lengthAdjust="spacing" textLength="193" x="48.5" y="58.0752">+ObjectId _id [Obrigat&#243;rio]</text><text fill="#000000" font-family="Verdana" font-size="14" lengthAdjust="spacing" textLength="190" x="48.5" y="75.0898">+String email [Obrigat&#243;rio]</text><text fill="#000000" font-family="Verdana" font-size="14" lengthAdjust="spacing" textLength="232" x="48.5" y="92.1045">+String senhaHash [Obrigat&#243;rio]</text><text fill="#000000" font-family="Verdana" font-size="14" lengthAdjust="spacing" textLength="240" x="48.5" y="109.1191">+String perfilInvestidor [Opcional]</text><text fill="#000000" font-family="Verdana" font-size="14" lengthAdjust="spacing" textLength="240" x="48.5" y="126.1338">+Date dataCadastro [Obrigat&#243;rio]</text><line style="stroke:#0052CC;stroke-width:1.0;" x1="43.5" x2="293.5" y1="133.0732" y2="133.0732"/></g><!--class HistoricoBusca--><g id="elem_HistoricoBusca"><rect codeLine="18" fill="#F8F9FA" height="112.0586" id="HistoricoBusca" rx="2.5" ry="2.5" style="stroke:#0052CC;stroke-width:1.0;" width="265" x="36" y="218"/><rect fill="#E3F2FD" height="28" rx="2.5" ry="2.5" style="stroke:#E3F2FD;stroke-width:1.0;" width="265" x="36" y="218"/><rect fill="#E3F2FD" height="2.5" style="stroke:#E3F2FD;stroke-width:1.0;" width="265" x="36" y="243.5"/><rect codeLine="18" fill="none" height="112.0586" id="HistoricoBusca" rx="2.5" ry="2.5" style="stroke:#0052CC;stroke-width:1.0;" width="265" x="36" y="218"/><ellipse cx="113.25" cy="232" fill="#FFFFFF" rx="9" ry="9" style="stroke:#000000;stroke-width:1.0;"/><path d="M116.0156,227.875 Q116.1719,227.6563 116.3594,227.5469 Q116.5469,227.4375 116.7656,227.4375 Q117.1406,227.4375 117.375,227.7031 Q117.6094,227.9531 117.6094,228.5625 L117.6094,230.0156 Q117.6094,230.625 117.375,230.8906 Q117.1406,231.1563 116.7656,231.1563 Q116.4219,231.1563 116.2188,230.9531 Q116.0156,230.7656 115.9063,230.25 Q115.8594,229.8906 115.6719,229.7031 Q115.3438,229.3281 114.7344,229.1094 Q114.125,228.8906 113.5,228.8906 Q112.7344,228.8906 112.0938,229.2188 Q111.4688,229.5469 110.9688,230.2969 Q110.4844,231.0469 110.4844,232.0781 L110.4844,233.1719 Q110.4844,234.4063 111.375,235.2344 Q112.2656,236.0469 113.8594,236.0469 Q114.7969,236.0469 115.4531,235.7969 Q115.8438,235.6406 116.2656,235.2031 Q116.5313,234.9375 116.6719,234.8594 Q116.8281,234.7813 117.0313,234.7813 Q117.3594,234.7813 117.6094,235.0469 Q117.875,235.2969 117.875,235.6406 Q117.875,235.9844 117.5313,236.3906 Q117.0313,236.9688 116.2344,237.2969 Q115.1563,237.75 113.8594,237.75 Q112.3438,237.75 111.1406,237.125 Q110.1563,236.625 109.4688,235.5625 Q108.7813,234.4844 108.7813,233.2031 L108.7813,232.0469 Q108.7813,230.7188 109.3906,229.5781 Q110.0156,228.4219 111.1094,227.8125 Q112.2031,227.1875 113.4375,227.1875 Q114.1719,227.1875 114.8125,227.3594 Q115.4688,227.5156 116.0156,227.875 Z " fill="#000000"/><text fill="#000000" font-family="Verdana" font-size="14" lengthAdjust="spacing" textLength="103" x="130.75" y="237.5679">HistoricoBusca</text><line style="stroke:#0052CC;stroke-width:1.0;" x1="37" x2="300" y1="246" y2="246"/><text fill="#000000" font-family="Verdana" font-size="14" lengthAdjust="spacing" textLength="193" x="42" y="264.0752">+ObjectId _id [Obrigat&#243;rio]</text><text fill="#000000" font-family="Verdana" font-size="14" lengthAdjust="spacing" textLength="251" x="42" y="281.0898">+Date dataHoraBusca [Obrigat&#243;rio]</text><text fill="#000000" font-family="Verdana" font-size="14" lengthAdjust="spacing" textLength="253" x="42" y="298.1045">+String tickerBuscado [Obrigat&#243;rio]</text><text fill="#000000" font-family="Verdana" font-size="14" lengthAdjust="spacing" textLength="225" x="42" y="315.1191">+Boolean sucesso [Obrigat&#243;rio]</text><line style="stroke:#0052CC;stroke-width:1.0;" x1="37" x2="300" y1="322.0586" y2="322.0586"/></g><!--class AnaliseFundamentalista--><g id="elem_AnaliseFundamentalista"><rect codeLine="26" fill="#F8F9FA" height="163.1025" id="AnaliseFundamentalista" rx="2.5" ry="2.5" style="stroke:#0052CC;stroke-width:1.0;" width="285" x="12" y="407"/><rect fill="#E3F2FD" height="28" rx="2.5" ry="2.5" style="stroke:#E3F2FD;stroke-width:1.0;" width="285" x="12" y="407"/><rect fill="#E3F2FD" height="2.5" style="stroke:#E3F2FD;stroke-width:1.0;" width="285" x="12" y="432.5"/><rect codeLine="26" fill="none" height="163.1025" id="AnaliseFundamentalista" rx="2.5" ry="2.5" style="stroke:#0052CC;stroke-width:1.0;" width="285" x="12" y="407"/><ellipse cx="68.75" cy="421" fill="#FFFFFF" rx="9" ry="9" style="stroke:#000000;stroke-width:1.0;"/><path d="M71.5156,416.875 Q71.6719,416.6563 71.8594,416.5469 Q72.0469,416.4375 72.2656,416.4375 Q72.6406,416.4375 72.875,416.7031 Q73.1094,416.9531 73.1094,417.5625 L73.1094,419.0156 Q73.1094,419.625 72.875,419.8906 Q72.6406,420.1563 72.2656,420.1563 Q71.9219,420.1563 71.7188,419.9531 Q71.5156,419.7656 71.4063,419.25 Q71.3594,418.8906 71.1719,418.7031 Q70.8438,418.3281 70.2344,418.1094 Q69.625,417.8906 69,417.8906 Q68.2344,417.8906 67.5938,418.2188 Q66.9688,418.5469 66.4688,419.2969 Q65.9844,420.0469 65.9844,421.0781 L65.9844,422.1719 Q65.9844,423.4063 66.875,424.2344 Q67.7656,425.0469 69.3594,425.0469 Q70.2969,425.0469 70.9531,424.7969 Q71.3438,424.6406 71.7656,424.2031 Q72.0313,423.9375 72.1719,423.8594 Q72.3281,423.7813 72.5313,423.7813 Q72.8594,423.7813 73.1094,424.0469 Q73.375,424.2969 73.375,424.6406 Q73.375,424.9844 73.0313,425.3906 Q72.5313,425.9688 71.7344,426.2969 Q70.6563,426.75 69.3594,426.75 Q67.8438,426.75 66.6406,426.125 Q65.6563,425.625 64.9688,424.5625 Q64.2813,423.4844 64.2813,422.2031 L64.2813,421.0469 Q64.2813,419.7188 64.8906,418.5781 Q65.5156,417.4219 66.6094,416.8125 Q67.7031,416.1875 68.9375,416.1875 Q69.6719,416.1875 70.3125,416.3594 Q70.9688,416.5156 71.5156,416.875 Z " fill="#000000"/><text fill="#000000" font-family="Verdana" font-size="14" lengthAdjust="spacing" textLength="164" x="86.25" y="426.5679">AnaliseFundamentalista</text><line style="stroke:#0052CC;stroke-width:1.0;" x1="13" x2="296" y1="435" y2="435"/><text fill="#000000" font-family="Verdana" font-size="14" lengthAdjust="spacing" textLength="193" x="18" y="453.0752">+ObjectId _id [Obrigat&#243;rio]</text><text fill="#000000" font-family="Verdana" font-size="14" lengthAdjust="spacing" textLength="248" x="18" y="470.0898">+String perfilUtilizado [Obrigat&#243;rio]</text><text fill="#000000" font-family="Verdana" font-size="14" lengthAdjust="spacing" textLength="273" x="18" y="487.1045">+Double precoJustoGraham [Opcional]</text><text fill="#000000" font-family="Verdana" font-size="14" lengthAdjust="spacing" textLength="250" x="18" y="504.1191">+Double precoTetoBazin [Opcional]</text><text fill="#000000" font-family="Verdana" font-size="14" lengthAdjust="spacing" textLength="231" x="18" y="521.1338">+Double dividendYield [Opcional]</text><text fill="#000000" font-family="Verdana" font-size="14" lengthAdjust="spacing" textLength="167" x="18" y="538.1484">+Double pvp [Opcional]</text><text fill="#000000" font-family="Verdana" font-size="14" lengthAdjust="spacing" textLength="255" x="18" y="555.1631">+String classificacaoGeral [Opcional]</text><line style="stroke:#0052CC;stroke-width:1.0;" x1="13" x2="296" y1="562.1025" y2="562.1025"/></g><!--class AtivoFinanceiro--><g id="elem_AtivoFinanceiro"><rect codeLine="37" fill="#F8F9FA" height="129.0732" id="AtivoFinanceiro" rx="2.5" ry="2.5" style="stroke:#0052CC;stroke-width:1.0;" width="278" x="332.5" y="424"/><rect fill="#E3F2FD" height="28" rx="2.5" ry="2.5" style="stroke:#E3F2FD;stroke-width:1.0;" width="278" x="332.5" y="424"/><rect fill="#E3F2FD" height="2.5" style="stroke:#E3F2FD;stroke-width:1.0;" width="278" x="332.5" y="449.5"/><rect codeLine="37" fill="none" height="129.0732" id="AtivoFinanceiro" rx="2.5" ry="2.5" style="stroke:#0052CC;stroke-width:1.0;" width="278" x="332.5" y="424"/><ellipse cx="414.75" cy="438" fill="#FFFFFF" rx="9" ry="9" style="stroke:#000000;stroke-width:1.0;"/><path d="M417.5156,433.875 Q417.6719,433.6563 417.8594,433.5469 Q418.0469,433.4375 418.2656,433.4375 Q418.6406,433.4375 418.875,433.7031 Q419.1094,433.9531 419.1094,434.5625 L419.1094,436.0156 Q419.1094,436.625 418.875,436.8906 Q418.6406,437.1563 418.2656,437.1563 Q417.9219,437.1563 417.7188,436.9531 Q417.5156,436.7656 417.4063,436.25 Q417.3594,435.8906 417.1719,435.7031 Q416.8438,435.3281 416.2344,435.1094 Q415.625,434.8906 415,434.8906 Q414.2344,434.8906 413.5938,435.2188 Q412.9688,435.5469 412.4688,436.2969 Q411.9844,437.0469 411.9844,438.0781 L411.9844,439.1719 Q411.9844,440.4063 412.875,441.2344 Q413.7656,442.0469 415.3594,442.0469 Q416.2969,442.0469 416.9531,441.7969 Q417.3438,441.6406 417.7656,441.2031 Q418.0313,440.9375 418.1719,440.8594 Q418.3281,440.7813 418.5313,440.7813 Q418.8594,440.7813 419.1094,441.0469 Q419.375,441.2969 419.375,441.6406 Q419.375,441.9844 419.0313,442.3906 Q418.5313,442.9688 417.7344,443.2969 Q416.6563,443.75 415.3594,443.75 Q413.8438,443.75 412.6406,443.125 Q411.6563,442.625 410.9688,441.5625 Q410.2813,440.4844 410.2813,439.2031 L410.2813,438.0469 Q410.2813,436.7188 410.8906,435.5781 Q411.5156,434.4219 412.6094,433.8125 Q413.7031,433.1875 414.9375,433.1875 Q415.6719,433.1875 416.3125,433.3594 Q416.9688,433.5156 417.5156,433.875 Z " fill="#000000"/><text fill="#000000" font-family="Verdana" font-size="14" lengthAdjust="spacing" textLength="106" x="432.25" y="443.5679">AtivoFinanceiro</text><line style="stroke:#0052CC;stroke-width:1.0;" x1="333.5" x2="609.5" y1="452" y2="452"/><text fill="#000000" font-family="Verdana" font-size="14" lengthAdjust="spacing" textLength="193" x="338.5" y="470.0752">+ObjectId _id [Obrigat&#243;rio]</text><text fill="#000000" font-family="Verdana" font-size="14" lengthAdjust="spacing" textLength="193" x="338.5" y="487.0898">+String ticker [Obrigat&#243;rio]</text><text fill="#000000" font-family="Verdana" font-size="14" lengthAdjust="spacing" textLength="218" x="338.5" y="504.1045">+String tipoAtivo [Obrigat&#243;rio]</text><text fill="#000000" font-family="Verdana" font-size="14" lengthAdjust="spacing" textLength="251" x="338.5" y="521.1191">+Double cotacaoAtual [Obrigat&#243;rio]</text><text fill="#000000" font-family="Verdana" font-size="14" lengthAdjust="spacing" textLength="266" x="338.5" y="538.1338">+Date ultimaAtualizacao [Obrigat&#243;rio]</text><line style="stroke:#0052CC;stroke-width:1.0;" x1="333.5" x2="609.5" y1="545.0732" y2="545.0732"/></g><!--class SetorAtivo--><g id="elem_SetorAtivo"><rect codeLine="46" fill="#F8F9FA" height="95.0439" id="SetorAtivo" rx="2.5" ry="2.5" style="stroke:#0052CC;stroke-width:1.0;" width="245" x="349" y="226.5"/><rect fill="#E3F2FD" height="28" rx="2.5" ry="2.5" style="stroke:#E3F2FD;stroke-width:1.0;" width="245" x="349" y="226.5"/><rect fill="#E3F2FD" height="2.5" style="stroke:#E3F2FD;stroke-width:1.0;" width="245" x="349" y="252"/><rect codeLine="46" fill="none" height="95.0439" id="SetorAtivo" rx="2.5" ry="2.5" style="stroke:#0052CC;stroke-width:1.0;" width="245" x="349" y="226.5"/><ellipse cx="430.25" cy="240.5" fill="#FFFFFF" rx="9" ry="9" style="stroke:#000000;stroke-width:1.0;"/><path d="M433.0156,236.375 Q433.1719,236.1563 433.3594,236.0469 Q433.5469,235.9375 433.7656,235.9375 Q434.1406,235.9375 434.375,236.2031 Q434.6094,236.4531 434.6094,237.0625 L434.6094,238.5156 Q434.6094,239.125 434.375,239.3906 Q434.1406,239.6563 433.7656,239.6563 Q433.4219,239.6563 433.2188,239.4531 Q433.0156,239.2656 432.9063,238.75 Q432.8594,238.3906 432.6719,238.2031 Q432.3438,237.8281 431.7344,237.6094 Q431.125,237.3906 430.5,237.3906 Q429.7344,237.3906 429.0938,237.7188 Q428.4688,238.0469 427.9688,238.7969 Q427.4844,239.5469 427.4844,240.5781 L427.4844,241.6719 Q427.4844,242.9063 428.375,243.7344 Q429.2656,244.5469 430.8594,244.5469 Q431.7969,244.5469 432.4531,244.2969 Q432.8438,244.1406 433.2656,243.7031 Q433.5313,243.4375 433.6719,243.3594 Q433.8281,243.2813 434.0313,243.2813 Q434.3594,243.2813 434.6094,243.5469 Q434.875,243.7969 434.875,244.1406 Q434.875,244.4844 434.5313,244.8906 Q434.0313,245.4688 433.2344,245.7969 Q432.1563,246.25 430.8594,246.25 Q429.3438,246.25 428.1406,245.625 Q427.1563,245.125 426.4688,244.0625 Q425.7813,242.9844 425.7813,241.7031 L425.7813,240.5469 Q425.7813,239.2188 426.3906,238.0781 Q427.0156,236.9219 428.1094,236.3125 Q429.2031,235.6875 430.4375,235.6875 Q431.1719,235.6875 431.8125,235.8594 Q432.4688,236.0156 433.0156,236.375 Z " fill="#000000"/><text fill="#000000" font-family="Verdana" font-size="14" lengthAdjust="spacing" textLength="75" x="447.75" y="246.0679">SetorAtivo</text><line style="stroke:#0052CC;stroke-width:1.0;" x1="350" x2="593" y1="254.5" y2="254.5"/><text fill="#000000" font-family="Verdana" font-size="14" lengthAdjust="spacing" textLength="193" x="355" y="272.5752">+ObjectId _id [Obrigat&#243;rio]</text><text fill="#000000" font-family="Verdana" font-size="14" lengthAdjust="spacing" textLength="233" x="355" y="289.5898">+String nomeSetor [Obrigat&#243;rio]</text><text fill="#000000" font-family="Verdana" font-size="14" lengthAdjust="spacing" textLength="200" x="355" y="306.6045">+String descricao [Opcional]</text><line style="stroke:#0052CC;stroke-width:1.0;" x1="350" x2="593" y1="313.5439" y2="313.5439"/></g><!--reverse link Usuario to HistoricoBusca--><g id="link_Usuario_HistoricoBusca"><path codeLine="57" d="M168.5,153.24 C168.5,177.98 168.5,194.04 168.5,217.88 " fill="none" id="Usuario-backto-HistoricoBusca" style="stroke:#000000;stroke-width:1.0;"/><polygon fill="#000000" points="168.5,141.24,164.5,147.24,168.5,153.24,172.5,147.24,168.5,141.24" style="stroke:#000000;stroke-width:1.0;"/><polygon fill="#000000" points="173.5,184.8997,176.4389,175.8546,170.5611,175.8546,173.5,184.8997" style="stroke:#000000;stroke-width:1.0;"/><text fill="#000000" font-family="Verdana" font-size="13" lengthAdjust="spacing" textLength="78" x="182.5" y="185.0698">Composi&#231;&#227;o</text><text fill="#000000" font-family="Verdana" font-size="13" lengthAdjust="spacing" textLength="8" x="160.0625" y="162.2508">1</text><text fill="#000000" font-family="Verdana" font-size="13" lengthAdjust="spacing" textLength="27" x="139.6859" y="207.4507">0..*</text></g><!--reverse link HistoricoBusca to AnaliseFundamentalista--><g id="link_HistoricoBusca_AnaliseFundamentalista"><path codeLine="60" d="M164.091,341.974 C162.551,365.344 161.51,381.08 159.82,406.7 " fill="none" id="HistoricoBusca-backto-AnaliseFundamentalista" style="stroke:#000000;stroke-width:1.0;"/><polygon fill="#000000" points="164.88,330,160.4941,335.724,164.091,341.974,168.4768,336.25,164.88,330" style="stroke:#000000;stroke-width:1.0;"/><polygon fill="#000000" points="168.1708,373.8888,171.6989,365.0569,165.8338,364.6698,168.1708,373.8888" style="stroke:#000000;stroke-width:1.0;"/><text fill="#000000" font-family="Verdana" font-size="13" lengthAdjust="spacing" textLength="78" x="177.5" y="374.0698">Composi&#231;&#227;o</text><text fill="#000000" font-family="Verdana" font-size="13" lengthAdjust="spacing" textLength="8" x="155.9037" y="351.2532">1</text><text fill="#000000" font-family="Verdana" font-size="13" lengthAdjust="spacing" textLength="8" x="151.9458" y="396.2916">1</text></g><!--link HistoricoBusca to AtivoFinanceiro--><g id="link_HistoricoBusca_AtivoFinanceiro"><path codeLine="63" d="M246.92,330 C287.87,358.71 333.2571,390.5557 375.8771,420.4357 " fill="none" id="HistoricoBusca-to-AtivoFinanceiro" style="stroke:#000000;stroke-width:1.0;"/><polygon fill="#000000" points="380.79,423.88,375.7169,415.4382,376.6959,421.0097,371.1244,421.9888,380.79,423.88" style="stroke:#000000;stroke-width:1.0;"/><polygon fill="#000000" points="320.5937,371.7705,314.8756,364.1709,311.5007,368.9833,320.5937,371.7705" style="stroke:#000000;stroke-width:1.0;"/><text fill="#000000" font-family="Verdana" font-size="13" lengthAdjust="spacing" textLength="74" x="325.5" y="374.0698">Associa&#231;&#227;o</text><text fill="#000000" font-family="Verdana" font-size="13" lengthAdjust="spacing" textLength="27" x="228.2379" y="351.2532">0..*</text><text fill="#000000" font-family="Verdana" font-size="13" lengthAdjust="spacing" textLength="8" x="361.2472" y="413.2044">1</text></g><!--reverse link SetorAtivo to AtivoFinanceiro--><g id="link_SetorAtivo_AtivoFinanceiro"><path codeLine="66" d="M471.5,333.63 C471.5,363.57 471.5,390.83 471.5,423.65 " fill="none" id="SetorAtivo-backto-AtivoFinanceiro" style="stroke:#000000;stroke-width:1.0;"/><polygon fill="none" points="471.5,321.63,467.5,327.63,471.5,333.63,475.5,327.63,471.5,321.63" style="stroke:#000000;stroke-width:1.0;"/><polygon fill="#000000" points="476.5,373.8997,479.4389,364.8546,473.5611,364.8546,476.5,373.8997" style="stroke:#000000;stroke-width:1.0;"/><text fill="#000000" font-family="Verdana" font-size="13" lengthAdjust="spacing" textLength="70" x="485.5" y="374.0698">Agrega&#231;&#227;o</text><text fill="#000000" font-family="Verdana" font-size="13" lengthAdjust="spacing" textLength="8" x="462.9375" y="342.5056">1</text><text fill="#000000" font-family="Verdana" font-size="13" lengthAdjust="spacing" textLength="27" x="442.9391" y="413.3963">0..*</text></g><!--SRC=[bPNFRXD94CRlVefQSzY5JRmXWBGRQP4cTaoCGipYvB12Q5NkATkrcUaQkdiC2k9X40V4WHEFC2-srJCcs4xi9RvOe_wc-bTV_PcVmenoWY93jYr_mRP0XpcO3BrFGd0yBWCDZDWHNnBiBKdy35DvmtOA4ymyBPrquyk7Q2wcJagRTYKJ1tVwl_V_w2VNPE9ISWl9tjwZVMFM9SU4AhaMZnvCzYTfg_Kp79sU3Nf9xmZkjsfkEFSbEXPurmBu5ORZVyc4GGh_S0elXsF7KmpLLnMygiz7cgLcGJbojkNSavtXCVhP5ar1RiBPmCx91qwLykMmC2mMiqRMmq2GOi0kfkY3a_LOxrVosL_aSym-Y6CZXwKt-8DfNTrrB0wR5pU31pONwd5KfNAJxb0a8xJWIqFU_m_tWmLteecpfxuM3NEo8Ju5l5rP6alF0sTykO6j9-KuqnvsPEHfgLOzSJZJxbatVqbsHa4EyPBj1b7ASqx9fdypPUccGFDY_MJ1N6VF4pPeK9wGmsnPkEhLmszU1PvBdorQG-nksRjD-ROA2gblsEAVaH1var1Yjh6XoYnmZhL6ww7oxPtmQ97TIFrs3S2j4hEIK_tk5arAtkXmr2Yh9l_vmpyLlpWwIRg3uMdoJEc7enqu6pmVZk08kicBtk0qEQap6jqkhAgxaXVYkVfKVPG3DG8axgVgGrnG4qqifOo2TlQERfWIPZeXCKKZUW3ZE90U0kRZwdCErMVu1ItRk7dL6ZYLqLydTpkjR_kkVRyDztPteRtNwTnhhw-DWnKKU7mTxZn7G5jzY4CBlleAz5P3QAUBUrrgxVMu9WBo1PdgI-nmpO5XGXomqrgxy0f7_pUiWfkO4jqlXd71D5os10kowaTRlqSpClGR5gAXsX2_5kfhqs0HDKADcsrs7QjnPtVtSKEsDdW7Am0BfAcZALwvrBGpuDIL1SAyhgK7Z87y3kHAACsJpfGDR4jid6IhTVEn0tmTm9SvkqvhQJWYa7olu0ritqaKxJy0]--></g></svg>