<?xml version="1.0" encoding="UTF-8"?>
<?xml-stylesheet href="https://cdnjs.cloudflare.com/ajax/libs/font-awesome/6.7.2/css/all.min.css" type="text/css"?>
<svg id="graph-1" width="100%" xmlns="http://www.w3.org/2000/svg" class="classDiagram" style="overflow: hidden; max-width: 100%; touch-action: none; user-select: none; -webkit-user-drag: none; -webkit-tap-highlight-color: rgba(0, 0, 0, 0); background-color: rgb(2, 8, 23);" role="graphics-document document" aria-roledescription="class" height="100%" xmlns:xlink="http://www.w3.org/1999/xlink" xmlns:ev="http://www.w3.org/2001/xml-events"><g id="viewport-20260405024909130" class="svg-pan-zoom_viewport" transform="matrix(0.7074387272014688,0,0,0.7074387272014688,370.42924131529037,-2.8254533073144934)" style="transform: matrix(0.707439, 0, 0, 0.707439, 370.429, -2.82545);"><style>#graph-1{font-family:"trebuchet ms",verdana,arial,sans-serif;font-size:16px;fill:#ccc;}@keyframes edge-animation-frame{from{stroke-dashoffset:0;}}@keyframes dash{to{stroke-dashoffset:0;}}#graph-1 .edge-animation-slow{stroke-dasharray:9,5!important;stroke-dashoffset:900;animation:dash 50s linear infinite;stroke-linecap:round;}#graph-1 .edge-animation-fast{stroke-dasharray:9,5!important;stroke-dashoffset:900;animation:dash 20s linear infinite;stroke-linecap:round;}#graph-1 .error-icon{fill:#a44141;}#graph-1 .error-text{fill:#ddd;stroke:#ddd;}#graph-1 .edge-thickness-normal{stroke-width:1px;}#graph-1 .edge-thickness-thick{stroke-width:3.5px;}#graph-1 .edge-pattern-solid{stroke-dasharray:0;}#graph-1 .edge-thickness-invisible{stroke-width:0;fill:none;}#graph-1 .edge-pattern-dashed{stroke-dasharray:3;}#graph-1 .edge-pattern-dotted{stroke-dasharray:2;}#graph-1 .marker{fill:lightgrey;stroke:lightgrey;}#graph-1 .marker.cross{stroke:lightgrey;}#graph-1 svg{font-family:"trebuchet ms",verdana,arial,sans-serif;font-size:16px;}#graph-1 p{margin:0;}#graph-1 g.classGroup text{fill:#ccc;stroke:none;font-family:"trebuchet ms",verdana,arial,sans-serif;font-size:10px;}#graph-1 g.classGroup text .title{font-weight:bolder;}#graph-1 .cluster-label text{fill:#F9FFFE;}#graph-1 .cluster-label span{color:#F9FFFE;}#graph-1 .cluster-label span p{background-color:transparent;}#graph-1 .cluster rect{fill:hsl(180, 1.5873015873%, 28.3529411765%);stroke:rgba(255, 255, 255, 0.25);stroke-width:1px;}#graph-1 .cluster text{fill:#F9FFFE;}#graph-1 .cluster span{color:#F9FFFE;}#graph-1 .nodeLabel,#graph-1 .edgeLabel{color:#e0dfdf;}#graph-1 .edgeLabel .label rect{fill:#1f2020;}#graph-1 .label text{fill:#e0dfdf;}#graph-1 .labelBkg{background:#1f2020;}#graph-1 .edgeLabel .label span{background:#1f2020;}#graph-1 .classTitle{font-weight:bolder;}#graph-1 .node rect,#graph-1 .node circle,#graph-1 .node ellipse,#graph-1 .node polygon,#graph-1 .node path{fill:#1f2020;stroke:#ccc;stroke-width:1px;}#graph-1 .divider{stroke:#ccc;stroke-width:1;}#graph-1 g.clickable{cursor:pointer;}#graph-1 g.classGroup rect{fill:#1f2020;stroke:#ccc;}#graph-1 g.classGroup line{stroke:#ccc;stroke-width:1;}#graph-1 .classLabel .box{stroke:none;stroke-width:0;fill:#1f2020;opacity:0.5;}#graph-1 .classLabel .label{fill:#ccc;font-size:10px;}#graph-1 .relation{stroke:lightgrey;stroke-width:1;fill:none;}#graph-1 .dashed-line{stroke-dasharray:3;}#graph-1 .dotted-line{stroke-dasharray:1 2;}#graph-1 #compositionStart,#graph-1 .composition{fill:lightgrey!important;stroke:lightgrey!important;stroke-width:1;}#graph-1 #compositionEnd,#graph-1 .composition{fill:lightgrey!important;stroke:lightgrey!important;stroke-width:1;}#graph-1 #dependencyStart,#graph-1 .dependency{fill:lightgrey!important;stroke:lightgrey!important;stroke-width:1;}#graph-1 #dependencyStart,#graph-1 .dependency{fill:lightgrey!important;stroke:lightgrey!important;stroke-width:1;}#graph-1 #extensionStart,#graph-1 .extension{fill:transparent!important;stroke:lightgrey!important;stroke-width:1;}#graph-1 #extensionEnd,#graph-1 .extension{fill:transparent!important;stroke:lightgrey!important;stroke-width:1;}#graph-1 #aggregationStart,#graph-1 .aggregation{fill:transparent!important;stroke:lightgrey!important;stroke-width:1;}#graph-1 #aggregationEnd,#graph-1 .aggregation{fill:transparent!important;stroke:lightgrey!important;stroke-width:1;}#graph-1 #lollipopStart,#graph-1 .lollipop{fill:#1f2020!important;stroke:lightgrey!important;stroke-width:1;}#graph-1 #lollipopEnd,#graph-1 .lollipop{fill:#1f2020!important;stroke:lightgrey!important;stroke-width:1;}#graph-1 .edgeTerminals{font-size:11px;line-height:initial;}#graph-1 .classTitleText{text-anchor:middle;font-size:18px;fill:#ccc;}#graph-1 .label-icon{display:inline-block;height:1em;overflow:visible;vertical-align:-0.125em;}#graph-1 .node .label-icon path{fill:currentColor;stroke:revert;stroke-width:revert;}#graph-1 :root{--mermaid-font-family:"trebuchet ms",verdana,arial,sans-serif;}</style><g><defs><marker id="graph-1_class-aggregationStart" class="marker aggregation class" refX="18" refY="7" markerWidth="190" markerHeight="240" orient="auto"><path d="M 18,7 L9,13 L1,7 L9,1 Z"></path></marker></defs><defs><marker id="graph-1_class-aggregationEnd" class="marker aggregation class" refX="1" refY="7" markerWidth="20" markerHeight="28" orient="auto"><path d="M 18,7 L9,13 L1,7 L9,1 Z"></path></marker></defs><defs><marker id="graph-1_class-extensionStart" class="marker extension class" refX="18" refY="7" markerWidth="190" markerHeight="240" orient="auto"><path d="M 1,7 L18,13 V 1 Z"></path></marker></defs><defs><marker id="graph-1_class-extensionEnd" class="marker extension class" refX="1" refY="7" markerWidth="20" markerHeight="28" orient="auto"><path d="M 1,1 V 13 L18,7 Z"></path></marker></defs><defs><marker id="graph-1_class-compositionStart" class="marker composition class" refX="18" refY="7" markerWidth="190" markerHeight="240" orient="auto"><path d="M 18,7 L9,13 L1,7 L9,1 Z"></path></marker></defs><defs><marker id="graph-1_class-compositionEnd" class="marker composition class" refX="1" refY="7" markerWidth="20" markerHeight="28" orient="auto"><path d="M 18,7 L9,13 L1,7 L9,1 Z"></path></marker></defs><defs><marker id="graph-1_class-dependencyStart" class="marker dependency class" refX="6" refY="7" markerWidth="190" markerHeight="240" orient="auto"><path d="M 5,7 L9,13 L1,7 L9,1 Z"></path></marker></defs><defs><marker id="graph-1_class-dependencyEnd" class="marker dependency class" refX="13" refY="7" markerWidth="20" markerHeight="28" orient="auto"><path d="M 18,7 L9,13 L14,7 L9,1 Z"></path></marker></defs><defs><marker id="graph-1_class-lollipopStart" class="marker lollipop class" refX="13" refY="7" markerWidth="190" markerHeight="240" orient="auto"><circle fill="transparent" cx="7" cy="7" r="6"></circle></marker></defs><defs><marker id="graph-1_class-lollipopEnd" class="marker lollipop class" refX="1" refY="7" markerWidth="190" markerHeight="240" orient="auto"><circle fill="transparent" cx="7" cy="7" r="6"></circle></marker></defs><g class="root"><g class="clusters"></g><g class="edgePaths"><path d="M178.906,241.25L178.906,244.542C178.906,247.833,178.906,254.417,178.906,263.875C178.906,273.333,178.906,285.667,178.906,291.833L178.906,298" id="id_Usuario_PesquisaHistorico_1" class="edge-thickness-normal edge-pattern-solid relation" style=";;;" data-edge="true" data-et="edge" data-id="id_Usuario_PesquisaHistorico_1" data-points="W3sieCI6MTc4LjkwNjI1LCJ5IjoyMjR9LHsieCI6MTc4LjkwNjI1LCJ5IjoyNjF9LHsieCI6MTc4LjkwNjI1LCJ5IjoyOTh9XQ==" marker-start="url(#graph-1_class-compositionStart)"></path><path d="M178.906,490L178.906,496.167C178.906,502.333,178.906,514.667,186.61,526.413C194.314,538.16,209.722,549.32,217.426,554.9L225.13,560.48" id="id_PesquisaHistorico_AtivoB3_2" class="edge-thickness-normal edge-pattern-solid relation" style=";;;" data-edge="true" data-et="edge" data-id="id_PesquisaHistorico_AtivoB3_2" data-points="W3sieCI6MTc4LjkwNjI1LCJ5Ijo0OTB9LHsieCI6MTc4LjkwNjI1LCJ5Ijo1Mjd9LHsieCI6MjI5Ljk4OTM1MzI2NTk3NzQ2LCJ5Ijo1NjR9XQ==" marker-end="url(#graph-1_class-dependencyEnd)"></path><path d="M546.152,495.25L546.152,500.542C546.152,505.833,546.152,516.417,537.638,527.875C529.125,539.333,512.097,551.667,503.583,557.833L495.069,564" id="id_SetorAtivo_AtivoB3_3" class="edge-thickness-normal edge-pattern-solid relation" style=";;;" data-edge="true" data-et="edge" data-id="id_SetorAtivo_AtivoB3_3" data-points="W3sieCI6NTQ2LjE1MjM0Mzc1LCJ5Ijo0Nzh9LHsieCI6NTQ2LjE1MjM0Mzc1LCJ5Ijo1Mjd9LHsieCI6NDk1LjA2OTI0MDQ4NDAyMjU0LCJ5Ijo1NjR9XQ==" marker-start="url(#graph-1_class-aggregationStart)"></path><path d="M362.529,773.25L362.529,776.542C362.529,779.833,362.529,786.417,362.529,795.875C362.529,805.333,362.529,817.667,362.529,823.833L362.529,830" id="id_AtivoB3_AnaliseValuation_4" class="edge-thickness-normal edge-pattern-solid relation" style=";;;" data-edge="true" data-et="edge" data-id="id_AtivoB3_AnaliseValuation_4" data-points="W3sieCI6MzYyLjUyOTI5Njg3NSwieSI6NzU2fSx7IngiOjM2Mi41MjkyOTY4NzUsInkiOjc5M30seyJ4IjozNjIuNTI5Mjk2ODc1LCJ5Ijo4MzB9XQ==" marker-start="url(#graph-1_class-compositionStart)"></path></g><g class="edgeLabels"><g class="edgeLabel" transform="translate(178.90625, 261)"><g class="label" data-id="id_Usuario_PesquisaHistorico_1" transform="translate(-42.4453125, -12)"><foreignObject width="84.890625" height="24"><div xmlns="http://www.w3.org/1999/xhtml" class="labelBkg" style="display: table-cell; white-space: nowrap; line-height: 1.5; max-width: 200px; text-align: center;"><span class="edgeLabel"><p>Composição</p></span></div></foreignObject></g></g><g class="edgeLabel" transform="translate(178.90625, 527)"><g class="label" data-id="id_PesquisaHistorico_AtivoB3_2" transform="translate(-38.390625, -12)"><foreignObject width="76.78125" height="24"><div xmlns="http://www.w3.org/1999/xhtml" class="labelBkg" style="display: table-cell; white-space: nowrap; line-height: 1.5; max-width: 200px; text-align: center;"><span class="edgeLabel"><p>Associação</p></span></div></foreignObject></g></g><g class="edgeLabel" transform="translate(546.15234375, 527)"><g class="label" data-id="id_SetorAtivo_AtivoB3_3" transform="translate(-36.8828125, -12)"><foreignObject width="73.765625" height="24"><div xmlns="http://www.w3.org/1999/xhtml" class="labelBkg" style="display: table-cell; white-space: nowrap; line-height: 1.5; max-width: 200px; text-align: center;"><span class="edgeLabel"><p>Agregação</p></span></div></foreignObject></g></g><g class="edgeLabel" transform="translate(362.529296875, 793)"><g class="label" data-id="id_AtivoB3_AnaliseValuation_4" transform="translate(-42.4453125, -12)"><foreignObject width="84.890625" height="24"><div xmlns="http://www.w3.org/1999/xhtml" class="labelBkg" style="display: table-cell; white-space: nowrap; line-height: 1.5; max-width: 200px; text-align: center;"><span class="edgeLabel"><p>Composição</p></span></div></foreignObject></g></g><g class="edgeTerminals" transform="translate(163.90625, 241.5)"><g class="inner" transform="translate(-2.890625, -8.25)"><foreignObject width="5.78125" height="16.5" style="width: 9px; height: 12px;"><div xmlns="http://www.w3.org/1999/xhtml" style="display: table-cell; white-space: nowrap; line-height: 1.5;"><span class="edgeLabel"><p>1</p></span></div></foreignObject></g></g><g class="edgeTerminals" transform="translate(163.90625, 507.5)"><g class="inner" transform="translate(-8.9453125, -8.25)"><foreignObject width="17.890625" height="16.5" style="width: 36px; height: 12px;"><div xmlns="http://www.w3.org/1999/xhtml" style="display: table-cell; white-space: nowrap; line-height: 1.5;"><span class="edgeLabel"><p>0..*</p></span></div></foreignObject></g></g><g class="edgeTerminals" transform="translate(531.1523418750002, 495.49999839285715)"><g class="inner" transform="translate(-2.890625, -8.25)"><foreignObject width="5.78125" height="16.5" style="width: 9px; height: 12px;"><div xmlns="http://www.w3.org/1999/xhtml" style="display: table-cell; white-space: nowrap; line-height: 1.5;"><span class="edgeLabel"><p>1</p></span></div></foreignObject></g></g><g class="edgeTerminals" transform="translate(347.5292984375, 773.5000013392857)"><g class="inner" transform="translate(-2.890625, -8.25)"><foreignObject width="5.78125" height="16.5" style="width: 9px; height: 12px;"><div xmlns="http://www.w3.org/1999/xhtml" style="display: table-cell; white-space: nowrap; line-height: 1.5;"><span class="edgeLabel"><p>1</p></span></div></foreignObject></g></g><g class="edgeTerminals" transform="translate(188.90625, 275.5)"><g class="inner" transform="translate(-8.9453125, -8.25)"></g><foreignObject width="17.890625" height="16.5" style="width: 36px; height: 12px;"><div xmlns="http://www.w3.org/1999/xhtml" style="display: table-cell; white-space: nowrap; line-height: 1.5;"><span class="edgeLabel"><p>0..*</p></span></div></foreignObject></g><g class="edgeTerminals" transform="translate(219.61554498775226, 536.5863412128223)"><g class="inner" transform="translate(-2.890625, -8.25)"></g><foreignObject width="5.78125" height="16.5" style="width: 9px; height: 12px;"><div xmlns="http://www.w3.org/1999/xhtml" style="display: table-cell; white-space: nowrap; line-height: 1.5;"><span class="edgeLabel"><p>1</p></span></div></foreignObject></g><g class="edgeTerminals" transform="translate(513.0410873242546, 560.882619708877)"><g class="inner" transform="translate(-8.9453125, -8.25)"></g><foreignObject width="17.890625" height="16.5" style="width: 36px; height: 12px;"><div xmlns="http://www.w3.org/1999/xhtml" style="display: table-cell; white-space: nowrap; line-height: 1.5;"><span class="edgeLabel"><p>0..*</p></span></div></foreignObject></g><g class="edgeTerminals" transform="translate(372.5292984374999, 807.5000013392857)"><g class="inner" transform="translate(-2.890625, -8.25)"></g><foreignObject width="5.78125" height="16.5" style="width: 9px; height: 12px;"><div xmlns="http://www.w3.org/1999/xhtml" style="display: table-cell; white-space: nowrap; line-height: 1.5;"><span class="edgeLabel"><p>1</p></span></div></foreignObject></g></g><g class="nodes"><g class="node default" id="classId-Usuario-10" transform="translate(178.90625, 116)"><g class="basic label-container"><path d="M-145.734375 -108 L145.734375 -108 L145.734375 108 L-145.734375 108" stroke="none" stroke-width="0" fill="#1f2020" style=""></path><path d="M-145.734375 -108 C-81.06053750482116 -108, -16.38670000964231 -108, 145.734375 -108 M-145.734375 -108 C-69.92941745446112 -108, 5.875540091077767 -108, 145.734375 -108 M145.734375 -108 C145.734375 -41.15242216601736, 145.734375 25.69515566796528, 145.734375 108 M145.734375 -108 C145.734375 -25.857633848550208, 145.734375 56.284732302899585, 145.734375 108 M145.734375 108 C77.38282299370381 108, 9.031270987407623 108, -145.734375 108 M145.734375 108 C75.4098694261873 108, 5.0853638523745985 108, -145.734375 108 M-145.734375 108 C-145.734375 45.92296028351243, -145.734375 -16.154079432975138, -145.734375 -108 M-145.734375 108 C-145.734375 22.52812723854069, -145.734375 -62.94374552291862, -145.734375 -108" stroke="#ccc" stroke-width="1.3" fill="none" stroke-dasharray="0 0" style=""></path></g><g class="annotation-group text" transform="translate(0, -84)"></g><g class="label-group text" transform="translate(-28.1875, -84)"><g class="label" style="font-weight: bolder" transform="translate(0,-12)"><foreignObject width="56.375" height="24"><div xmlns="http://www.w3.org/1999/xhtml" style="display: table-cell; white-space: nowrap; line-height: 1.5; max-width: 111px; text-align: center;"><span class="nodeLabel markdown-node-label" style=""><p>Usuario</p></span></div></foreignObject></g></g><g class="members-group text" transform="translate(-133.734375, -36)"><g class="label" style="" transform="translate(0,-12)"><foreignObject width="159.484375" height="24"><div xmlns="http://www.w3.org/1999/xhtml" style="display: table-cell; white-space: nowrap; line-height: 1.5; max-width: 237px; text-align: center;"><span class="nodeLabel markdown-node-label" style=""><p>+UUID id [Obrigatório]</p></span></div></foreignObject></g><g class="label" style="" transform="translate(0,12)"><foreignObject width="191.921875" height="24"><div xmlns="http://www.w3.org/1999/xhtml" style="display: table-cell; white-space: nowrap; line-height: 1.5; max-width: 275px; text-align: center;"><span class="nodeLabel markdown-node-label" style=""><p>+String nome [Obrigatório]</p></span></div></foreignObject></g><g class="label" style="" transform="translate(0,36)"><foreignObject width="192.28125" height="24"><div xmlns="http://www.w3.org/1999/xhtml" style="display: table-cell; white-space: nowrap; line-height: 1.5; max-width: 276px; text-align: center;"><span class="nodeLabel markdown-node-label" style=""><p>+String email [Obrigatório]</p></span></div></foreignObject></g><g class="label" style="" transform="translate(0,60)"><foreignObject width="227.78125" height="24"><div xmlns="http://www.w3.org/1999/xhtml" style="display: table-cell; white-space: nowrap; line-height: 1.5; max-width: 318px; text-align: center;"><span class="nodeLabel markdown-node-label" style=""><p>+String senhaHash [Obrigatório]</p></span></div></foreignObject></g><g class="label" style="" transform="translate(0,84)"><foreignObject width="239.28125" height="24"><div xmlns="http://www.w3.org/1999/xhtml" style="display: table-cell; white-space: nowrap; line-height: 1.5; max-width: 327px; text-align: center;"><span class="nodeLabel markdown-node-label" style=""><p>+Date dataCadastro [Obrigatório]</p></span></div></foreignObject></g></g><g class="methods-group text" transform="translate(-133.734375, 108)"></g><g class="divider" style=""><path d="M-145.734375 -60 C-72.90237289500047 -60, -0.07037079000093627 -60, 145.734375 -60 M-145.734375 -60 C-82.04110589207897 -60, -18.34783678415795 -60, 145.734375 -60" stroke="#ccc" stroke-width="1.3" fill="none" stroke-dasharray="0 0" style=""></path></g><g class="divider" style=""><path d="M-145.734375 84 C-75.32709388237427 84, -4.919812764748542 84, 145.734375 84 M-145.734375 84 C-62.37541891536213 84, 20.983537169275735 84, 145.734375 84" stroke="#ccc" stroke-width="1.3" fill="none" stroke-dasharray="0 0" style=""></path></g></g><g class="node default" id="classId-PesquisaHistorico-11" transform="translate(178.90625, 394)"><g class="basic label-container"><path d="M-170.90625 -96 L170.90625 -96 L170.90625 96 L-170.90625 96" stroke="none" stroke-width="0" fill="#1f2020" style=""></path><path d="M-170.90625 -96 C-80.4724566191953 -96, 9.961336761609402 -96, 170.90625 -96 M-170.90625 -96 C-50.05047070442235 -96, 70.8053085911553 -96, 170.90625 -96 M170.90625 -96 C170.90625 -25.273774897073224, 170.90625 45.45245020585355, 170.90625 96 M170.90625 -96 C170.90625 -57.05618046702778, 170.90625 -18.11236093405556, 170.90625 96 M170.90625 96 C50.876252382738485 96, -69.15374523452303 96, -170.90625 96 M170.90625 96 C98.53361781657743 96, 26.160985633154866 96, -170.90625 96 M-170.90625 96 C-170.90625 50.39451542397905, -170.90625 4.789030847958102, -170.90625 -96 M-170.90625 96 C-170.90625 27.855455667339086, -170.90625 -40.28908866532183, -170.90625 -96" stroke="#ccc" stroke-width="1.3" fill="none" stroke-dasharray="0 0" style=""></path></g><g class="annotation-group text" transform="translate(0, -72)"></g><g class="label-group text" transform="translate(-65.28125, -72)"><g class="label" style="font-weight: bolder" transform="translate(0,-12)"><foreignObject width="130.5625" height="24"><div xmlns="http://www.w3.org/1999/xhtml" style="display: table-cell; white-space: nowrap; line-height: 1.5; max-width: 194px; text-align: center;"><span class="nodeLabel markdown-node-label" style=""><p>PesquisaHistorico</p></span></div></foreignObject></g></g><g class="members-group text" transform="translate(-158.90625, -24)"><g class="label" style="" transform="translate(0,-12)"><foreignObject width="159.484375" height="24"><div xmlns="http://www.w3.org/1999/xhtml" style="display: table-cell; white-space: nowrap; line-height: 1.5; max-width: 237px; text-align: center;"><span class="nodeLabel markdown-node-label" style=""><p>+UUID id [Obrigatório]</p></span></div></foreignObject></g><g class="label" style="" transform="translate(0,12)"><foreignObject width="250.640625" height="24"><div xmlns="http://www.w3.org/1999/xhtml" style="display: table-cell; white-space: nowrap; line-height: 1.5; max-width: 338px; text-align: center;"><span class="nodeLabel markdown-node-label" style=""><p>+Date dataHoraBusca [Obrigatório]</p></span></div></foreignObject></g><g class="label" style="" transform="translate(0,36)"><foreignObject width="252.53125" height="24"><div xmlns="http://www.w3.org/1999/xhtml" style="display: table-cell; white-space: nowrap; line-height: 1.5; max-width: 344px; text-align: center;"><span class="nodeLabel markdown-node-label" style=""><p>+String tickerBuscado [Obrigatório]</p></span></div></foreignObject></g><g class="label" style="" transform="translate(0,60)"><foreignObject width="221.21875" height="24"><div xmlns="http://www.w3.org/1999/xhtml" style="display: table-cell; white-space: nowrap; line-height: 1.5; max-width: 309px; text-align: center;"><span class="nodeLabel markdown-node-label" style=""><p>+Boolean sucesso [Obrigatório]</p></span></div></foreignObject></g></g><g class="methods-group text" transform="translate(-158.90625, 96)"></g><g class="divider" style=""><path d="M-170.90625 -48 C-90.30535125534831 -48, -9.704452510696626 -48, 170.90625 -48 M-170.90625 -48 C-59.881174065923986 -48, 51.14390186815203 -48, 170.90625 -48" stroke="#ccc" stroke-width="1.3" fill="none" stroke-dasharray="0 0" style=""></path></g><g class="divider" style=""><path d="M-170.90625 72 C-96.93781589267236 72, -22.969381785344723 72, 170.90625 72 M-170.90625 72 C-54.85998555324855 72, 61.1862788935029 72, 170.90625 72" stroke="#ccc" stroke-width="1.3" fill="none" stroke-dasharray="0 0" style=""></path></g></g><g class="node default" id="classId-AtivoB3-12" transform="translate(362.529296875, 660)"><g class="basic label-container"><path d="M-163.14453125 -96 L163.14453125 -96 L163.14453125 96 L-163.14453125 96" stroke="none" stroke-width="0" fill="#1f2020" style=""></path><path d="M-163.14453125 -96 C-86.90486301073769 -96, -10.66519477147537 -96, 163.14453125 -96 M-163.14453125 -96 C-95.91327064049743 -96, -28.68201003099486 -96, 163.14453125 -96 M163.14453125 -96 C163.14453125 -40.57457968746034, 163.14453125 14.850840625079314, 163.14453125 96 M163.14453125 -96 C163.14453125 -33.27087642370565, 163.14453125 29.458247152588697, 163.14453125 96 M163.14453125 96 C91.11102315434863 96, 19.07751505869726 96, -163.14453125 96 M163.14453125 96 C51.13149076627512 96, -60.88154971744976 96, -163.14453125 96 M-163.14453125 96 C-163.14453125 30.843705529534873, -163.14453125 -34.312588940930254, -163.14453125 -96 M-163.14453125 96 C-163.14453125 27.43989840747301, -163.14453125 -41.12020318505398, -163.14453125 -96" stroke="#ccc" stroke-width="1.3" fill="none" stroke-dasharray="0 0" style=""></path></g><g class="annotation-group text" transform="translate(0, -72)"></g><g class="label-group text" transform="translate(-28.8203125, -72)"><g class="label" style="font-weight: bolder" transform="translate(0,-12)"><foreignObject width="57.640625" height="24"><div xmlns="http://www.w3.org/1999/xhtml" style="display: table-cell; white-space: nowrap; line-height: 1.5; max-width: 111px; text-align: center;"><span class="nodeLabel markdown-node-label" style=""><p>AtivoB3</p></span></div></foreignObject></g></g><g class="members-group text" transform="translate(-151.14453125, -24)"><g class="label" style="" transform="translate(0,-12)"><foreignObject width="194.4375" height="24"><div xmlns="http://www.w3.org/1999/xhtml" style="display: table-cell; white-space: nowrap; line-height: 1.5; max-width: 279px; text-align: center;"><span class="nodeLabel markdown-node-label" style=""><p>+String ticker [Obrigatório]</p></span></div></foreignObject></g><g class="label" style="" transform="translate(0,12)"><foreignObject width="217.765625" height="24"><div xmlns="http://www.w3.org/1999/xhtml" style="display: table-cell; white-space: nowrap; line-height: 1.5; max-width: 307px; text-align: center;"><span class="nodeLabel markdown-node-label" style=""><p>+String tipoAtivo [Obrigatório]</p></span></div></foreignObject></g><g class="label" style="" transform="translate(0,36)"><foreignObject width="254.3125" height="24"><div xmlns="http://www.w3.org/1999/xhtml" style="display: table-cell; white-space: nowrap; line-height: 1.5; max-width: 342px; text-align: center;"><span class="nodeLabel markdown-node-label" style=""><p>+Double cotacaoAtual [Obrigatório]</p></span></div></foreignObject></g><g class="label" style="" transform="translate(0,60)"><foreignObject width="273.46875" height="24"><div xmlns="http://www.w3.org/1999/xhtml" style="display: table-cell; white-space: nowrap; line-height: 1.5; max-width: 364px; text-align: center;"><span class="nodeLabel markdown-node-label" style=""><p>+Date ultimaAtualizacao [Obrigatório]</p></span></div></foreignObject></g></g><g class="methods-group text" transform="translate(-151.14453125, 96)"></g><g class="divider" style=""><path d="M-163.14453125 -48 C-62.980375315426514 -48, 37.18378061914697 -48, 163.14453125 -48 M-163.14453125 -48 C-79.6871326544928 -48, 3.770265941014401 -48, 163.14453125 -48" stroke="#ccc" stroke-width="1.3" fill="none" stroke-dasharray="0 0" style=""></path></g><g class="divider" style=""><path d="M-163.14453125 72 C-50.25863226016544 72, 62.62726672966912 72, 163.14453125 72 M-163.14453125 72 C-83.56394104654414 72, -3.9833508430882887 72, 163.14453125 72" stroke="#ccc" stroke-width="1.3" fill="none" stroke-dasharray="0 0" style=""></path></g></g><g class="node default" id="classId-SetorAtivo-13" transform="translate(546.15234375, 394)"><g class="basic label-container"><path d="M-146.33984375 -84 L146.33984375 -84 L146.33984375 84 L-146.33984375 84" stroke="none" stroke-width="0" fill="#1f2020" style=""></path><path d="M-146.33984375 -84 C-82.51955583838114 -84, -18.69926792676229 -84, 146.33984375 -84 M-146.33984375 -84 C-43.713055745434886 -84, 58.91373225913023 -84, 146.33984375 -84 M146.33984375 -84 C146.33984375 -24.938383561064086, 146.33984375 34.12323287787183, 146.33984375 84 M146.33984375 -84 C146.33984375 -43.450982822459565, 146.33984375 -2.9019656449191302, 146.33984375 84 M146.33984375 84 C65.37790165381143 84, -15.58404044237713 84, -146.33984375 84 M146.33984375 84 C34.377426734361265 84, -77.58499028127747 84, -146.33984375 84 M-146.33984375 84 C-146.33984375 25.795646310873074, -146.33984375 -32.40870737825385, -146.33984375 -84 M-146.33984375 84 C-146.33984375 40.8016342563949, -146.33984375 -2.3967314872102037, -146.33984375 -84" stroke="#ccc" stroke-width="1.3" fill="none" stroke-dasharray="0 0" style=""></path></g><g class="annotation-group text" transform="translate(0, -60)"></g><g class="label-group text" transform="translate(-39.1796875, -60)"><g class="label" style="font-weight: bolder" transform="translate(0,-12)"><foreignObject width="78.359375" height="24"><div xmlns="http://www.w3.org/1999/xhtml" style="display: table-cell; white-space: nowrap; line-height: 1.5; max-width: 136px; text-align: center;"><span class="nodeLabel markdown-node-label" style=""><p>SetorAtivo</p></span></div></foreignObject></g></g><g class="members-group text" transform="translate(-134.33984375, -12)"><g class="label" style="" transform="translate(0,-12)"><foreignObject width="159.484375" height="24"><div xmlns="http://www.w3.org/1999/xhtml" style="display: table-cell; white-space: nowrap; line-height: 1.5; max-width: 237px; text-align: center;"><span class="nodeLabel markdown-node-label" style=""><p>+UUID id [Obrigatório]</p></span></div></foreignObject></g><g class="label" style="" transform="translate(0,12)"><foreignObject width="229.5" height="24"><div xmlns="http://www.w3.org/1999/xhtml" style="display: table-cell; white-space: nowrap; line-height: 1.5; max-width: 318px; text-align: center;"><span class="nodeLabel markdown-node-label" style=""><p>+String nomeSetor [Obrigatório]</p></span></div></foreignObject></g><g class="label" style="" transform="translate(0,36)"><foreignObject width="201.75" height="24"><div xmlns="http://www.w3.org/1999/xhtml" style="display: table-cell; white-space: nowrap; line-height: 1.5; max-width: 286px; text-align: center;"><span class="nodeLabel markdown-node-label" style=""><p>+String descricao [Opcional]</p></span></div></foreignObject></g></g><g class="methods-group text" transform="translate(-134.33984375, 84)"></g><g class="divider" style=""><path d="M-146.33984375 -36 C-39.35491533798792 -36, 67.63001307402416 -36, 146.33984375 -36 M-146.33984375 -36 C-59.4763817860003 -36, 27.387080177999394 -36, 146.33984375 -36" stroke="#ccc" stroke-width="1.3" fill="none" stroke-dasharray="0 0" style=""></path></g><g class="divider" style=""><path d="M-146.33984375 60 C-64.53329535336962 60, 17.273253043260752 60, 146.33984375 60 M-146.33984375 60 C-40.43934163569605 60, 65.4611604786079 60, 146.33984375 60" stroke="#ccc" stroke-width="1.3" fill="none" stroke-dasharray="0 0" style=""></path></g></g><g class="node default" id="classId-AnaliseValuation-14" transform="translate(362.529296875, 950)"><g class="basic label-container"><path d="M-180.7890625 -120 L180.7890625 -120 L180.7890625 120 L-180.7890625 120" stroke="none" stroke-width="0" fill="#1f2020" style=""></path><path d="M-180.7890625 -120 C-41.10037429016373 -120, 98.58831391967254 -120, 180.7890625 -120 M-180.7890625 -120 C-97.83746969957642 -120, -14.885876899152834 -120, 180.7890625 -120 M180.7890625 -120 C180.7890625 -45.36706438135562, 180.7890625 29.265871237288763, 180.7890625 120 M180.7890625 -120 C180.7890625 -52.32221381675397, 180.7890625 15.355572366492055, 180.7890625 120 M180.7890625 120 C40.00262907555205 120, -100.7838043488959 120, -180.7890625 120 M180.7890625 120 C92.39798542429413 120, 4.006908348588269 120, -180.7890625 120 M-180.7890625 120 C-180.7890625 65.04684001339581, -180.7890625 10.093680026791631, -180.7890625 -120 M-180.7890625 120 C-180.7890625 53.433385999439636, -180.7890625 -13.133228001120727, -180.7890625 -120" stroke="#ccc" stroke-width="1.3" fill="none" stroke-dasharray="0 0" style=""></path></g><g class="annotation-group text" transform="translate(0, -96)"></g><g class="label-group text" transform="translate(-61.640625, -96)"><g class="label" style="font-weight: bolder" transform="translate(0,-12)"><foreignObject width="123.28125" height="24"><div xmlns="http://www.w3.org/1999/xhtml" style="display: table-cell; white-space: nowrap; line-height: 1.5; max-width: 185px; text-align: center;"><span class="nodeLabel markdown-node-label" style=""><p>AnaliseValuation</p></span></div></foreignObject></g></g><g class="members-group text" transform="translate(-168.7890625, -48)"><g class="label" style="" transform="translate(0,-12)"><foreignObject width="159.484375" height="24"><div xmlns="http://www.w3.org/1999/xhtml" style="display: table-cell; white-space: nowrap; line-height: 1.5; max-width: 237px; text-align: center;"><span class="nodeLabel markdown-node-label" style=""><p>+UUID id [Obrigatório]</p></span></div></foreignObject></g><g class="label" style="" transform="translate(0,12)"><foreignObject width="275.9375" height="24"><div xmlns="http://www.w3.org/1999/xhtml" style="display: table-cell; white-space: nowrap; line-height: 1.5; max-width: 362px; text-align: center;"><span class="nodeLabel markdown-node-label" style=""><p>+Double precoJustoGraham [Opcional]</p></span></div></foreignObject></g><g class="label" style="" transform="translate(0,36)"><foreignObject width="251.59375" height="24"><div xmlns="http://www.w3.org/1999/xhtml" style="display: table-cell; white-space: nowrap; line-height: 1.5; max-width: 336px; text-align: center;"><span class="nodeLabel markdown-node-label" style=""><p>+Double precoTetoBazin [Opcional]</p></span></div></foreignObject></g><g class="label" style="" transform="translate(0,60)"><foreignObject width="243.140625" height="24"><div xmlns="http://www.w3.org/1999/xhtml" style="display: table-cell; white-space: nowrap; line-height: 1.5; max-width: 331px; text-align: center;"><span class="nodeLabel markdown-node-label" style=""><p>+String efeitoBolaNeve [Opcional]</p></span></div></foreignObject></g><g class="label" style="" transform="translate(0,84)"><foreignObject width="238.25" height="24"><div xmlns="http://www.w3.org/1999/xhtml" style="display: table-cell; white-space: nowrap; line-height: 1.5; max-width: 324px; text-align: center;"><span class="nodeLabel markdown-node-label" style=""><p>+Double dividendYield [Opcional]</p></span></div></foreignObject></g><g class="label" style="" transform="translate(0,108)"><foreignObject width="167.578125" height="24"><div xmlns="http://www.w3.org/1999/xhtml" style="display: table-cell; white-space: nowrap; line-height: 1.5; max-width: 244px; text-align: center;"><span class="nodeLabel markdown-node-label" style=""><p>+Double pvp [Opcional]</p></span></div></foreignObject></g></g><g class="methods-group text" transform="translate(-168.7890625, 120)"></g><g class="divider" style=""><path d="M-180.7890625 -72 C-49.91919980383932 -72, 80.95066289232136 -72, 180.7890625 -72 M-180.7890625 -72 C-78.97977753776158 -72, 22.829507424476844 -72, 180.7890625 -72" stroke="#ccc" stroke-width="1.3" fill="none" stroke-dasharray="0 0" style=""></path></g><g class="divider" style=""><path d="M-180.7890625 96 C-70.72307756844772 96, 39.34290736310456 96, 180.7890625 96 M-180.7890625 96 C-56.99052211962571 96, 66.80801826074858 96, 180.7890625 96" stroke="#ccc" stroke-width="1.3" fill="none" stroke-dasharray="0 0" style=""></path></g></g></g></g></g></g></svg>